<?xml version="1.0" encoding="UTF-8" standalone="no"?>
<!-- Created with Inkscape (http://www.inkscape.org/) -->

<svg
   width="195.5452mm"
   height="194.90796mm"
   viewBox="0 0 195.5452 194.90796"
   version="1.1"
   id="svg1"
   xml:space="preserve"
   xmlns:inkscape="http://www.inkscape.org/namespaces/inkscape"
   xmlns:sodipodi="http://sodipodi.sourceforge.net/DTD/sodipodi-0.dtd"
   xmlns="http://www.w3.org/2000/svg"
   xmlns:svg="http://www.w3.org/2000/svg"><sodipodi:namedview
     id="namedview1"
     pagecolor="#00000f"
     bordercolor="#000000"
     borderopacity="0.25"
     inkscape:showpageshadow="2"
     inkscape:pageopacity="0.0"
     inkscape:pagecheckerboard="0"
     inkscape:deskcolor="#d1d1d1"
     inkscape:document-units="mm"
     inkscape:export-bgcolor="#ffffffff" /><defs
     id="defs1" /><g
     inkscape:label="Layer 1"
     inkscape:groupmode="layer"
     id="layer1"
     transform="translate(-7.3227908,-51.849802)"><g
       id="g4"><rect
         style="fill:#5599ff;fill-opacity:0.93819;stroke-width:3.3539;stroke-linecap:square;stroke-opacity:0.993939"
         id="rect1"
         width="146.69147"
         height="143.47632"
         x="-79.085793"
         y="110.75489"
         ry="9.926034"
         transform="rotate(-36.943397)" /><rect
         style="fill:#0055d4;fill-opacity:0.93819;stroke-width:3.3539;stroke-linecap:square;stroke-opacity:0.993939"
         id="rect2"
         width="146.69147"
         height="143.47632"
         x="-24.570532"
         y="105.03121"
         ry="9.926034"
         transform="rotate(-19.849371)" /><rect
         style="fill:#0044aa;fill-opacity:0.93819;stroke-width:3.3539;stroke-linecap:square;stroke-opacity:0.993939"
         id="rect3"
         width="146.69147"
         height="143.47632"
         x="32.553463"
         y="75.958054"
         ry="9.926034" /><path
         style="fill:#ffffff;stroke-width:0.546705"
         d="m 83.594704,174.94173 c -1.004094,-0.24342 -2.289554,-0.87871 -3.101429,-1.53275 -0.33091,-0.26657 -2.081913,-2.04689 -3.891117,-3.95626 -1.809205,-1.90937 -3.91432,-4.12338 -4.678035,-4.92001 -0.763716,-0.79662 -1.975201,-2.06592 -2.69219,-2.82065 -2.039862,-2.14723 -6.617469,-6.95532 -8.743057,-9.18328 -2.306394,-2.41748 -2.76704,-3.21874 -2.86967,-4.9916 -0.185174,-3.19877 2.001064,-5.76481 5.135424,-6.0276 1.915903,-0.16061 3.337947,0.50125 5.128704,2.38708 0.583591,0.61457 4.800932,5.07016 9.371868,9.90131 4.570936,4.83116 8.352667,8.78392 8.403847,8.78392 0.05118,0 1.352036,-1.28557 2.890791,-2.85682 4.834394,-4.93648 16.97183,-17.30918 20.75267,-21.15492 1.99446,-2.0287 5.2511,-5.34823 7.23697,-7.37673 5.10251,-5.21199 10.54385,-10.75945 14.68517,-14.97155 1.95549,-1.98893 4.32756,-4.41445 5.27126,-5.39003 0.94371,-0.97559 2.01315,-1.96295 2.37654,-2.19414 3.15103,-2.00467 7.3846,-0.36998 8.40314,3.24469 0.38471,1.36531 0.18598,3.11473 -0.48477,4.26716 -0.45452,0.78092 -0.83105,1.17956 -8.33202,8.82147 -3.86429,3.9369 -10.50559,10.70648 -14.75842,15.0435 -4.25285,4.33703 -9.52531,9.7092 -11.71659,11.9382 -2.19127,2.22898 -7.01091,7.13796 -10.71031,10.90881 -11.425705,11.64641 -10.495849,10.74648 -11.71658,11.3395 -0.596677,0.28987 -1.472823,0.62564 -1.946991,0.74618 -1.05214,0.26745 -2.899804,0.26493 -4.015205,-0.005 z"
         id="path3" /><rect
         style="fill:#ffffff;fill-opacity:0.93819;stroke-width:2.52968;stroke-linecap:square;stroke-opacity:0.993939"
         id="rect4"
         width="15.065302"
         height="16.477673"
         x="131.82138"
         y="157.94453"
         ry="7.5326509" /></g></g></svg>
